<svg width="14" height="14" viewBox="0 0 14 14" fill="none" xmlns="http://www.w3.org/2000/svg">
<path d="M4.08333 6.99996H5.25V8.16663H4.08333V6.99996ZM12.25 3.49996V11.6666C12.25 11.976 12.1271 12.2728 11.9083 12.4916C11.6895 12.7104 11.3928 12.8333 11.0833 12.8333H2.91667C2.26917 12.8333 1.75 12.3083 1.75 11.6666V3.49996C1.75 3.19054 1.87292 2.89379 2.09171 2.675C2.3105 2.45621 2.60725 2.33329 2.91667 2.33329H3.5V1.16663H4.66667V2.33329H9.33333V1.16663H10.5V2.33329H11.0833C11.3928 2.33329 11.6895 2.45621 11.9083 2.675C12.1271 2.89379 12.25 3.19054 12.25 3.49996ZM2.91667 4.66663H11.0833V3.49996H2.91667V4.66663ZM11.0833 11.6666V5.83329H2.91667V11.6666H11.0833ZM8.75 8.16663V6.99996H9.91667V8.16663H8.75ZM6.41667 8.16663V6.99996H7.58333V8.16663H6.41667ZM4.08333 9.33329H5.25V10.5H4.08333V9.33329ZM8.75 10.5V9.33329H9.91667V10.5H8.75ZM6.41667 10.5V9.33329H7.58333V10.5H6.41667Z" fill="#808080"/>
</svg>
