<svg width="24" height="22" viewBox="0 0 24 22" fill="none" xmlns="http://www.w3.org/2000/svg">
<path d="M23.0576 6.66435L17.5019 1.10916C16.8928 0.500037 16.0833 0.164856 15.2228 0.164856C14.3623 0.164856 13.5528 0.500574 12.9442 1.10916L2.64599 11.4068L0.942696 13.1101C-0.314232 14.3665 -0.314232 16.4115 0.942696 17.6678L4.79405 21.5192C4.84347 21.5692 4.89826 21.6137 4.95681 21.6529C4.97131 21.6626 4.98742 21.6685 5.00193 21.6777C5.04705 21.7051 5.09217 21.7314 5.14105 21.7518C5.16146 21.7604 5.18348 21.7641 5.20443 21.7717C5.24955 21.7872 5.2936 21.8039 5.34141 21.813C5.41123 21.8275 5.48214 21.835 5.55412 21.835H11.9999H18.9828C19.5758 21.835 20.0571 21.3538 20.0571 20.7607C20.0571 20.1677 19.5758 19.6864 18.9828 19.6864H14.5933L23.0582 11.2221C24.314 9.96567 24.314 7.92074 23.0576 6.66435ZM21.5386 9.70354L11.5546 19.6864H5.99941L2.46175 16.1493C2.04278 15.7303 2.04278 15.0487 2.46175 14.6297L3.40552 13.6854L7.48033 17.7602C7.68982 17.9703 7.96484 18.075 8.23986 18.075C8.51488 18.075 8.7899 17.9703 8.99939 17.7602C9.4189 17.3407 9.4189 16.6607 8.99939 16.2412L4.92458 12.1664L14.4638 2.62768C14.8688 2.22214 15.5762 2.22214 15.9823 2.62768L21.538 8.18287C21.957 8.60239 21.957 9.28463 21.5386 9.70354Z" fill="#9ACFFF"/>
</svg>
