<svg width="14" height="14" viewBox="0 0 14 14" fill="none" xmlns="http://www.w3.org/2000/svg">
<path d="M6.99999 11.6666C8.23767 11.6666 9.42465 11.175 10.2998 10.2998C11.175 9.42462 11.6667 8.23764 11.6667 6.99996C11.6667 5.76228 11.175 4.5753 10.2998 3.70013C9.42465 2.82496 8.23767 2.33329 6.99999 2.33329C5.76231 2.33329 4.57533 2.82496 3.70016 3.70013C2.82499 4.5753 2.33332 5.76228 2.33332 6.99996C2.33332 8.23764 2.82499 9.42462 3.70016 10.2998C4.57533 11.175 5.76231 11.6666 6.99999 11.6666ZM6.99999 1.16663C7.76603 1.16663 8.52458 1.31751 9.23231 1.61066C9.94004 1.90381 10.5831 2.33349 11.1248 2.87517C11.6665 3.41685 12.0961 4.05991 12.3893 4.76764C12.6824 5.47537 12.8333 6.23392 12.8333 6.99996C12.8333 8.54706 12.2187 10.0308 11.1248 11.1247C10.0308 12.2187 8.54709 12.8333 6.99999 12.8333C3.77416 12.8333 1.16666 10.2083 1.16666 6.99996C1.16666 5.45286 1.78124 3.96913 2.8752 2.87517C3.96916 1.78121 5.45289 1.16663 6.99999 1.16663ZM7.29166 4.08329V7.14579L9.91666 8.70329L9.47916 9.42079L6.41666 7.58329V4.08329H7.29166Z" fill="#808080"/>
</svg>
