<svg width="24" height="24" viewBox="0 0 24 24" fill="none" xmlns="http://www.w3.org/2000/svg">
<path d="M20.75 0.75H3.25C1.8625 0.75 0.75 1.8625 0.75 3.25V8.25H3.25V3.25H20.75V20.75H3.25V15.75H0.75V20.75C0.75 21.413 1.01339 22.0489 1.48223 22.5178C1.95107 22.9866 2.58696 23.25 3.25 23.25H20.75C21.413 23.25 22.0489 22.9866 22.5178 22.5178C22.9866 22.0489 23.25 21.413 23.25 20.75V3.25C23.25 1.8625 22.125 0.75 20.75 0.75ZM9.6 16.475L11.375 18.25L17.625 12L11.375 5.75L9.6 7.5125L12.8375 10.75H0.75V13.25H12.8375L9.6 16.475Z" fill="#272727"/>
</svg>
