<svg width="20" height="16" viewBox="0 0 20 16" fill="none" xmlns="http://www.w3.org/2000/svg">
<path d="M1.66667 1.39171L2.73333 0.333374L16.6667 14.2667L15.6083 15.3334L13.0417 12.7667C12.0833 13.0834 11.0667 13.25 10 13.25C5.83333 13.25 2.275 10.6584 0.833334 7.00004C1.40833 5.53337 2.325 4.24171 3.49167 3.21671L1.66667 1.39171ZM10 4.50004C10.663 4.50004 11.2989 4.76343 11.7678 5.23227C12.2366 5.70111 12.5 6.337 12.5 7.00004C12.5 7.29171 12.45 7.57504 12.3583 7.83337L9.16667 4.64171C9.425 4.55004 9.70833 4.50004 10 4.50004ZM10 0.750041C14.1667 0.750041 17.725 3.34171 19.1667 7.00004C18.4833 8.73337 17.325 10.2334 15.8333 11.325L14.65 10.1334C15.7833 9.35004 16.7167 8.28337 17.35 7.00004C15.975 4.20004 13.1333 2.41671 10 2.41671C9.09167 2.41671 8.2 2.56671 7.36667 2.83337L6.08333 1.55837C7.28333 1.04171 8.60833 0.750041 10 0.750041ZM2.65 7.00004C4.025 9.80004 6.86667 11.5834 10 11.5834C10.575 11.5834 11.1417 11.525 11.6667 11.4084L9.76667 9.50004C8.575 9.37504 7.625 8.42504 7.5 7.23337L4.66667 4.39171C3.84167 5.10004 3.15 5.98337 2.65 7.00004Z" fill="#2BB673"/>
</svg>
