<svg width="18" height="18" viewBox="0 0 18 18" fill="none" xmlns="http://www.w3.org/2000/svg">
    <path d="M6.56944 0.25C8.24547 0.25 9.85284 0.915797 11.038 2.10092C12.2231 3.28605 12.8889 4.89342 12.8889 6.56944C12.8889 8.13472 12.3153 9.57361 11.3722 10.6819L11.6347 10.9444H12.4028L17.2639 15.8056L15.8056 17.2639L10.9444 12.4028V11.6347L10.6819 11.3722C9.57361 12.3153 8.13472 12.8889 6.56944 12.8889C4.89342 12.8889 3.28605 12.2231 2.10092 11.038C0.915797 9.85284 0.25 8.24547 0.25 6.56944C0.25 4.89342 0.915797 3.28605 2.10092 2.10092C3.28605 0.915797 4.89342 0.25 6.56944 0.25ZM6.56944 2.19444C4.13889 2.19444 2.19444 4.13889 2.19444 6.56944C2.19444 9 4.13889 10.9444 6.56944 10.9444C9 10.9444 10.9444 9 10.9444 6.56944C10.9444 4.13889 9 2.19444 6.56944 2.19444Z"
          fill="#808085"/>
</svg>
