<svg width="19" height="19" viewBox="0 0 19 19" fill="none" xmlns="http://www.w3.org/2000/svg">
<path d="M7.29636 6.44265L9.5 1.76105L11.7036 6.44265C11.8858 6.82974 12.2534 7.09675 12.6778 7.15042L17.8112 7.79952L14.0397 11.342C13.7279 11.6349 13.5875 12.0669 13.6676 12.4872L14.6366 17.57L10.1021 15.0777C9.72714 14.8717 9.27286 14.8717 8.89793 15.0777L4.36338 17.57L5.33237 12.4872C5.41249 12.0669 5.27211 11.6349 4.96027 11.342L4.4468 11.8887L4.96027 11.342L1.18877 7.79952L6.32219 7.15042C6.74664 7.09675 7.11415 6.82974 7.29636 6.44265L6.61778 6.12324L7.29636 6.44265ZM18.1984 7.43589L18.1979 7.43632L18.1984 7.43589Z" stroke="black" stroke-width="1.5"/>
</svg>
