<svg width="20" height="14" viewBox="0 0 20 14" fill="none" xmlns="http://www.w3.org/2000/svg">
<path d="M10 4.5C10.663 4.5 11.2989 4.76339 11.7678 5.23223C12.2366 5.70107 12.5 6.33696 12.5 7C12.5 7.66304 12.2366 8.29893 11.7678 8.76777C11.2989 9.23661 10.663 9.5 10 9.5C9.33696 9.5 8.70107 9.23661 8.23223 8.76777C7.76339 8.29893 7.5 7.66304 7.5 7C7.5 6.33696 7.76339 5.70107 8.23223 5.23223C8.70107 4.76339 9.33696 4.5 10 4.5ZM10 0.75C14.1667 0.75 17.725 3.34167 19.1667 7C17.725 10.6583 14.1667 13.25 10 13.25C5.83333 13.25 2.275 10.6583 0.833334 7C2.275 3.34167 5.83333 0.75 10 0.75ZM2.65 7C4.025 9.8 6.86667 11.5833 10 11.5833C13.1333 11.5833 15.975 9.8 17.35 7C15.975 4.2 13.1333 2.41667 10 2.41667C6.86667 2.41667 4.025 4.2 2.65 7Z" fill="#2BB673"/>
</svg>
